HIERARCHY
ROOT hip
{
	OFFSET 0.000000 0.000000 0.000000
	CHANNELS 6 Xposition Yposition Zposition Xrotation Zrotation Yrotation 
	JOINT abdomen
	{
		OFFSET 0.000000 3.422050 0.000000
		CHANNELS 3 Xrotation Zrotation Yrotation 
		JOINT chest
		{
			OFFSET 0.000000 8.486693 -0.684411
			CHANNELS 3 Xrotation Zrotation Yrotation 
			JOINT neck
			{
				OFFSET 0.000000 10.266162 -0.273764
				CHANNELS 3 Xrotation Zrotation Yrotation 
				JOINT head
				{
					OFFSET 0.000000 3.148285 0.000000
					CHANNELS 3 Xrotation Zrotation Yrotation 
					End Site
					{
						OFFSET 0.000000 3.148289 0.000000
					}
				}
			}
			JOINT lCollar
			{
				OFFSET 3.422053 6.707223 -0.821293
				CHANNELS 3 Yrotation Zrotation Xrotation 
				JOINT lShldr
				{
					OFFSET 3.285171 0.000000 0.000000
					CHANNELS 3 Zrotation Yrotation Xrotation 
					JOINT lForeArm
					{
						OFFSET 10.129278 0.000000 0.000000
						CHANNELS 3 Yrotation Zrotation Xrotation 
						JOINT lHand
						{
							OFFSET 8.486692 0.000000 0.000000
							CHANNELS 3 Zrotation Yrotation Xrotation 
							End Site
							{
								OFFSET 4.106464 0.000000 0.000000
							}
						}
					}
				}
			}
			JOINT rCollar
			{
				OFFSET -3.558935 6.707223 -0.821293
				CHANNELS 3 Yrotation Zrotation Xrotation 
				JOINT rShldr
				{
					OFFSET -3.148289 0.000000 0.000000
					CHANNELS 3 Zrotation Yrotation Xrotation 
					JOINT rForeArm
					{
						OFFSET -10.266159 0.000000 0.000000
						CHANNELS 3 Yrotation Zrotation Xrotation 
						JOINT rHand
						{
							OFFSET -8.349810 0.000000 0.000000
							CHANNELS 3 Zrotation Yrotation Xrotation 
							End Site
							{
								OFFSET -4.106464 0.000000 0.000000
							}
						}
					}
				}
			}
		}
	}
	JOINT lThigh
	{
		OFFSET 5.338403 -1.642589 1.368821
		CHANNELS 3 Xrotation Zrotation Yrotation 
		JOINT lShin
		{
			OFFSET -2.053232 -20.121670 0.000000
			CHANNELS 3 Xrotation Zrotation Yrotation 
			JOINT lFoot
			{
				OFFSET 0.000000 -19.300380 -1.231939
				CHANNELS 3 Xrotation Yrotation Zrotation 
				End Site
				{
					OFFSET 0.000000 -2.463878 4.653993
				}
			}
		}
	}
	JOINT rThigh
	{
		OFFSET -5.338403 -1.642589 1.368821
		CHANNELS 3 Xrotation Zrotation Yrotation 
		JOINT rShin
		{
			OFFSET 2.053232 -20.121670 0.000000
			CHANNELS 3 Xrotation Zrotation Yrotation 
			JOINT rFoot
			{
				OFFSET 0.000000 -19.300380 -1.231939
				CHANNELS 3 Xrotation Yrotation Zrotation 
				End Site
				{
					OFFSET 0.000000 -2.463878 4.653993
				}
			}
		}
	}
}
MOTION
Frames: 20
Frame Time: 0.039918
0.000000 43.528500 0.000000 0.000000 0.000000 0.000000 0.000000 0.000000 0.000000 0.000000 0.000000 0.000000 0.000000 0.000000 0.000000 0.000000 0.000000 0.000000 0.000000 0.000000 0.000000 0.000000 0.000000 0.000000 0.000000 0.000000 0.000000 0.000000 0.000000 0.000000 0.000000 0.000000 0.000000 0.000000 0.000000 0.000000 0.000000 0.000000 0.000000 0.000000 0.000000 0.000000 0.000000 0.000000 0.000000 0.000000 0.000000 0.000000 0.000000 0.000000 0.000000 0.000000 0.000000 0.000000 0.000000 0.000000 0.000000 0.000000 0.000000 0.000000 
0.783983 26.272020 12.708813 91.010147 0.003677 -179.996262 -13.975859 -2.325518 -0.675224 7.552652 -0.910552 0.653138 15.993459 0.000000 0.000000 10.996041 0.000000 0.000000 27.942537 19.058147 1.238360 2.776590 46.341988 34.886795 0.553601 1.500928 30.469065 55.261547 -0.461415 -3.164835 -31.637466 -19.533209 -0.006352 -2.621910 -42.750874 34.791546 -0.553795 -0.913949 30.491962 -54.944378 0.181210 -2.536220 32.931534 43.216503 52.183609 68.071800 33.615768 -8.447675 16.460779 -28.782595 -12.948926 32.502926 -40.908939 -52.525803 71.221771 -34.286179 6.712065 13.527525 26.582510 12.525394 
0.783983 26.302391 12.988495 90.335007 0.003699 -179.996277 -14.972299 -2.325601 -0.675173 7.053057 -0.910513 0.653150 15.316841 0.000000 0.000000 10.466025 0.000000 0.000000 26.394957 18.927963 1.846444 2.955353 47.607929 35.016838 0.988626 1.329492 30.459410 55.938408 -0.362801 -2.846815 -29.808807 -19.448698 0.691148 -2.803950 -44.296745 34.915302 -1.027898 -0.752795 30.484194 -55.705181 0.141592 -2.273727 32.881123 43.581116 54.263332 67.700264 33.368038 -8.633716 17.449184 -29.493774 -10.949792 32.334675 -41.329254 -54.345055 70.662895 -34.028496 7.010738 14.602458 27.329681 10.753585 
0.783983 26.332762 13.268177 89.668198 0.003722 -179.996307 -15.969944 -2.325683 -0.675120 6.553307 -0.910474 0.653161 14.638465 0.000000 0.000000 9.935168 0.000000 0.000000 24.846067 18.781912 2.451708 3.143344 48.876095 35.156425 1.423709 1.157943 30.451071 56.616276 -0.267887 -2.527433 -27.975662 -19.342831 1.387597 -2.996360 -45.846943 35.049938 -1.502108 -0.591534 30.477762 -56.466759 0.105436 -2.010523 32.848675 43.948925 56.367489 67.330650 33.119259 -8.817343 18.477209 -30.177141 -8.913742 32.182594 -41.755486 -56.183571 70.107140 -33.768326 7.305572 15.714648 28.049358 8.947234 
0.783983 26.363132 13.547860 89.001091 0.003744 -179.996323 -16.968664 -2.325765 -0.675066 6.053427 -0.910435 0.653172 13.958368 0.000000 0.000000 9.403488 0.000000 0.000000 23.296654 18.620037 3.053440 3.341448 50.146160 35.306442 1.858845 0.986295 30.444021 57.295067 -0.176705 -2.206755 -26.139349 -19.215569 2.081857 -3.200288 -47.400852 35.196568 -1.976415 -0.430181 30.472668 -57.229034 0.072760 -1.746678 32.834904 44.319244 58.495338 66.962975 32.869465 -8.998574 19.544128 -30.830641 -6.841628 32.047482 -42.187004 -58.040939 69.554520 -33.505726 7.596554 16.863533 28.739695 7.106950 
0.783983 26.393503 13.827542 88.333702 0.003766 -179.996353 -17.968292 -2.325846 -0.675011 5.553429 -0.910395 0.653182 13.276591 0.000000 0.000000 8.871008 0.000000 0.000000 21.747536 18.442459 3.650942 3.550656 51.417789 35.467884 2.294026 0.814564 30.438278 57.974720 -0.089286 -1.884851 -24.301208 -19.066954 2.772792 -3.417047 -48.957878 35.356506 -2.450808 -0.268755 30.468901 -57.991898 0.043581 -1.482264 32.840462 44.691288 60.646057 66.597221 32.618652 -9.177406 20.648979 -31.452267 -4.734571 31.930113 -42.623192 -59.916744 69.005043 -33.240746 7.883693 18.048306 29.398846 5.233560 
0.783983 26.423874 14.107224 87.666115 0.003788 -179.996353 -18.968685 -2.325926 -0.674953 5.053337 -0.910356 0.653192 12.593173 0.000000 0.000000 8.337749 0.000000 0.000000 20.199509 18.249308 4.243523 3.772105 52.690601 35.641880 2.729246 0.642765 30.433838 58.655144 -0.005656 -1.561792 -22.462557 -18.897076 3.459268 -3.648153 -50.517384 35.531254 -2.925278 -0.107273 30.466469 -58.755276 0.017913 -1.217352 32.865948 45.064289 62.818741 66.233368 32.366867 -9.353865 21.790499 -32.040066 -2.593968 31.831236 -43.063347 -61.810516 68.458694 -32.973415 8.166973 19.267956 30.025034 3.328121 
0.783983 26.454245 14.386907 86.998322 0.003810 -179.996384 -19.969692 -2.326005 -0.674895 4.553169 -0.910317 0.653202 11.908163 0.000000 0.000000 7.803732 0.000000 0.000000 18.653357 18.040764 4.830508 4.007070 53.964264 35.829697 3.164499 0.470915 30.430710 59.336277 0.074158 -1.237648 -20.624712 -18.706099 4.140172 -3.895370 -52.078754 35.722584 -3.399812 0.054249 30.465376 -59.519062 -0.004231 -0.952016 32.911903 45.437416 65.012405 65.871414 32.114117 -9.527956 22.967140 -32.592155 -0.421502 31.751570 -43.506756 -63.721771 67.915466 -32.703793 8.446407 20.521191 30.616514 1.391941 
0.783983 26.484615 14.666590 86.330399 0.003831 -179.996414 -20.971151 -2.326082 -0.674835 4.052946 -0.910277 0.653211 11.221601 0.000000 0.000000 7.268977 0.000000 0.000000 17.109856 17.817030 5.411241 4.257006 55.238392 36.032784 3.599775 0.299029 30.428875 60.018028 0.150130 -0.912492 -18.788988 -18.494268 4.814405 -4.160741 -53.641354 35.932533 -3.874401 0.215793 30.465630 -60.283176 -0.022840 -0.686329 32.978779 45.809849 67.226021 65.511330 31.860426 -9.699700 24.177061 -33.106758 1.780853 31.691818 -43.952713 -65.650024 67.375381 -32.431942 8.721993 21.806507 31.171659 -0.573426 
0.783983 26.514986 14.946272 85.662384 0.003852 -179.996429 -21.972919 -2.326160 -0.674774 3.552681 -0.910237 0.653220 10.533528 0.000000 0.000000 6.733508 0.000000 0.000000 15.569757 17.578348 5.985079 4.523602 56.512600 36.252831 4.035072 0.127123 30.428356 60.700321 0.222240 -0.586397 -16.956654 -18.261873 5.480903 -4.446672 -55.204460 36.163471 -4.349035 0.377342 30.467216 -61.047508 -0.037908 -0.420365 33.066990 46.180737 69.458496 65.153099 31.605806 -9.869107 25.418123 -33.582199 4.010823 31.652607 -44.400410 -67.594711 66.838409 -32.157879 8.993737 23.122101 31.688885 -2.566165 
0.783983 26.545357 15.225954 84.994339 0.003873 -179.996460 -22.974848 -2.326235 -0.674711 3.052399 -0.910198 0.653229 9.843991 0.000000 0.000000 6.197348 0.000000 0.000000 14.033795 17.324991 6.551406 4.808796 57.786545 36.491787 4.470381 -0.044788 30.429142 61.383068 0.290466 -0.259435 -15.128964 -18.009279 6.138630 -4.756023 -56.767483 36.418304 -4.823702 0.538878 30.470144 -61.811996 -0.049426 -0.154196 33.176838 46.549225 71.708618 64.796738 31.350296 -10.036189 26.687895 -34.016960 6.265851 31.634537 -44.849094 -69.555252 66.304573 -31.881681 9.261641 24.465954 32.166756 -4.584214 
0.783983 26.575727 15.505636 84.326271 0.003894 -179.996475 -23.976768 -2.326310 -0.674647 2.552116 -0.910158 0.653237 9.153041 0.000000 0.000000 5.660519 0.000000 0.000000 12.502687 17.057270 7.109632 5.114819 59.059772 36.751846 4.905694 -0.216689 30.431232 62.066216 0.354790 0.068318 -13.307136 -17.736908 6.786597 -5.092165 -58.329647 36.700352 -5.298392 0.700385 30.474405 -62.576508 -0.057393 0.112103 33.308514 46.914429 73.975121 64.442200 31.093906 -10.200963 27.983660 -34.409657 8.543097 31.638165 -45.297962 -71.531067 65.773865 -31.603384 9.525708 25.835758 32.603928 -6.625249 
0.783983 26.606098 15.785318 83.658249 0.003914 -179.996490 -24.978542 -2.326384 -0.674582 2.051854 -0.910118 0.653245 8.460717 0.000000 0.000000 5.123039 0.000000 0.000000 10.977121 16.775513 7.659189 5.444290 60.331951 37.035675 5.341005 -0.388562 30.434620 62.749653 0.415195 0.396789 -11.492350 -17.445246 7.423851 -5.459163 -59.890282 37.013706 -5.773091 0.861844 30.480003 -63.340996 -0.061805 0.378457 33.462151 47.275490 76.256668 64.089478 30.836655 -10.363435 29.302437 -34.759087 10.839453 31.663961 -45.746178 -73.521484 65.246254 -31.323036 9.785951 27.228985 32.999218 -8.686714 
0.783983 26.636469 16.065001 82.990318 0.003934 -179.996521 -25.980005 -2.326456 -0.674516 1.551629 -0.910078 0.653253 7.767070 0.000000 0.000000 4.584934 0.000000 0.000000 9.457767 16.480089 8.199540 5.800263 61.602585 37.346279 5.776311 -0.560394 30.439329 63.433311 0.471668 0.725902 -9.685727 -17.134827 8.049497 -5.861913 -61.448612 37.363224 -6.247794 1.023239 30.486938 -64.105324 -0.062663 0.644794 33.637779 47.631584 78.551880 63.738590 30.578573 -10.523622 30.640997 -35.064232 13.151585 31.712360 -46.192936 -75.525826 64.721764 -31.040689 10.042372 28.642879 33.351593 -10.765826 
0.783983 26.666840 16.344683 82.322533 0.003954 -179.996552 -26.981007 -2.326527 -0.674448 1.051461 -0.910038 0.653260 7.072145 0.000000 0.000000 4.046227 0.000000 0.000000 7.945257 16.171385 8.730179 6.186341 62.871250 37.687267 6.211600 -0.732167 30.445333 64.117111 0.524196 1.055580 -7.888358 -16.806240 8.662690 -6.306412 -63.003891 37.754936 -6.722488 1.184553 30.495216 -64.869438 -0.059969 0.911039 33.835297 47.981815 80.859253 63.389462 30.319664 -10.681542 31.995913 -35.324280 15.475940 31.783749 -46.637421 -77.543434 64.200340 -30.756384 10.294990 30.074478 33.660187 -12.859596 
0.783983 26.697210 16.624367 81.654938 0.003974 -179.996567 -27.981401 -2.326597 -0.674379 0.551369 -0.909998 0.653267 6.375989 0.000000 0.000000 3.506941 0.000000 0.000000 6.440197 15.849813 9.250629 6.606817 64.137505 38.062943 6.646868 -0.903867 30.452648 64.800980 0.572768 1.385750 -6.101265 -16.460123 9.262644 -6.800053 -64.555298 38.196205 -7.197161 1.345767 30.504824 -65.633202 -0.053729 1.177118 34.054539 48.325420 83.177277 63.042122 30.059959 -10.837208 33.363590 -35.538654 17.808811 31.878386 -47.078789 -79.573494 63.682022 -30.470181 10.543808 31.520655 33.924339 -14.964874 
0.783983 26.727581 16.904049 80.987541 0.003993 -179.996597 -28.981030 -2.326666 -0.674309 0.051373 -0.909958 0.653274 5.678653 0.000000 0.000000 2.967097 0.000000 0.000000 4.943171 15.515806 9.760446 7.066816 65.400871 38.478436 7.082108 -1.075479 30.461262 65.484818 0.617377 1.716333 -4.325419 -16.097145 9.848628 -7.352023 -66.101952 38.696217 -7.671804 1.506867 30.515766 -66.396561 -0.043948 1.442958 34.295193 48.661594 85.504318 62.696556 29.799484 -10.990630 34.740284 -35.706970 20.146345 31.996504 -47.516220 -81.615242 63.166744 -30.182100 10.788838 32.978100 34.143520 -17.078335 
0.783983 26.757952 17.183731 80.320442 0.004012 -179.996613 -29.979740 -2.326733 -0.674238 -0.448509 -0.909918 0.653280 4.980183 0.000000 0.000000 2.426719 0.000000 0.000000 3.454721 15.169828 10.259223 7.572508 66.660820 38.939896 7.517314 -1.246985 30.471174 66.168541 0.658017 2.047255 -2.561734 -15.718035 10.419988 -7.973987 -67.642952 39.266644 -8.146407 1.667833 30.528046 -67.159424 -0.030635 1.708485 34.556835 48.989532 87.838692 62.352722 29.538242 -11.141826 36.122150 -35.829067 22.484608 32.138248 -47.948917 -83.667877 62.654556 -29.892235 11.030098 34.443417 34.317444 -19.196566 
0.783983 26.788322 17.463413 79.653664 0.004031 -179.996643 -30.977402 -2.326800 -0.674166 -0.948257 -0.909878 0.653286 4.280628 0.000000 0.000000 1.885831 0.000000 0.000000 1.975365 14.812355 10.746581 8.131397 67.916733 39.454815 7.952477 -1.418371 30.482389 66.852058 0.694683 2.378437 -0.811061 -15.323537 10.976110 -8.680819 -69.177223 39.922337 -8.620955 1.828648 30.541653 -67.921669 -0.013801 1.973626 34.839001 49.308575 90.178741 62.010632 29.276268 -11.290805 37.505356 -35.905067 24.819641 32.303638 -48.376049 -85.730453 62.145397 -29.600588 11.267597 35.913162 34.446026 -21.316082 
0.783983 26.818693 17.743095 78.995987 0.004050 -179.996658 -31.973845 -2.326864 -0.674093 -1.447854 -0.909838 0.653292 3.580041 0.000000 0.000000 1.344456 0.000000 0.000000 0.505583 14.443870 11.222180 8.752751 69.168091 40.032490 8.387590 -1.589621 30.494904 67.535332 0.727373 2.709803 0.925811 -14.914439 11.516471 -9.491896 -70.703629 40.682678 -9.095444 1.989296 30.556589 -68.683228 0.006540 2.238310 35.141018 49.618004 92.522621 61.670250 29.013575 -11.437591 38.886024 -35.935261 27.147490 32.492683 -48.796875 -87.802139 61.639263 -29.307232 11.501350 37.383793 34.529350 -23.433342 
